<?xml version="1.0" encoding="UTF-8" standalone="no"?>
<!-- Created with Inkscape (http://www.inkscape.org/) -->

<svg
   xmlns:dc="http://purl.org/dc/elements/1.1/"
   xmlns:cc="http://creativecommons.org/ns#"
   xmlns:rdf="http://www.w3.org/1999/02/22-rdf-syntax-ns#"
   xmlns:svg="http://www.w3.org/2000/svg"
   xmlns="http://www.w3.org/2000/svg"
   xmlns:sodipodi="http://sodipodi.sourceforge.net/DTD/sodipodi-0.dtd"
   xmlns:inkscape="http://www.inkscape.org/namespaces/inkscape"
   id="svg2"
   version="1.1"
   inkscape:version="0.48.5 r10040"
   width="161.56813"
   height="69.136032"
   xml:space="preserve"
   sodipodi:docname="dp20mars2015vf.pdf"><metadata
     id="metadata8"><rdf:RDF><cc:Work
         rdf:about=""><dc:format>image/svg+xml</dc:format><dc:type
           rdf:resource="http://purl.org/dc/dcmitype/StillImage" /><dc:title></dc:title></cc:Work></rdf:RDF></metadata><defs
     id="defs6"><clipPath
       clipPathUnits="userSpaceOnUse"
       id="clipPath16"><path
         d="m 28.346,698.74 538.583,0 0,113.987 -538.583,0 0,-113.987 z"
         id="path18"
         inkscape:connector-curvature="0" /></clipPath><clipPath
       clipPathUnits="userSpaceOnUse"
       id="clipPath30"><path
         d="m 0,0 595.276,0 0,841.89 L 0,841.89 0,0 z"
         id="path32"
         inkscape:connector-curvature="0" /></clipPath><clipPath
       clipPathUnits="userSpaceOnUse"
       id="clipPath42"><path
         d="m 388.346,633.543 178.582,0 0,67.323 -178.582,0 0,-67.323 z"
         id="path44"
         inkscape:connector-curvature="0" /></clipPath><clipPath
       clipPathUnits="userSpaceOnUse"
       id="clipPath306"><path
         d="m 381.717,9.685 158.558,0 0,90.849 -158.558,0 0,-90.849 z"
         id="path308"
         inkscape:connector-curvature="0" /></clipPath></defs><sodipodi:namedview
     pagecolor="#ffffff"
     bordercolor="#666666"
     borderopacity="1"
     objecttolerance="10"
     gridtolerance="10"
     guidetolerance="10"
     inkscape:pageopacity="0"
     inkscape:pageshadow="2"
     inkscape:window-width="640"
     inkscape:window-height="480"
     id="namedview4"
     showgrid="false"
     fit-margin-top="0"
     fit-margin-left="0"
     fit-margin-right="0"
     fit-margin-bottom="0"
     inkscape:zoom="1.7940585"
     inkscape:cx="99.270461"
     inkscape:cy="14.895969"
     inkscape:window-x="0"
     inkscape:window-y="0"
     inkscape:window-maximized="0"
     inkscape:current-layer="g10" /><g
     id="g10"
     inkscape:groupmode="layer"
     inkscape:label="dp20mars2015vf"
     transform="matrix(1.25,0,0,-1.25,-844.51807,842.20401)"><g
       id="g26"><g
         id="g28"
         clip-path="url(#clipPath30)"><g
           id="g34"
           transform="translate(512.3622,644.1732)"><path
             d="M 0,0 C 19.569,0 35.433,16.498 35.433,36.85 35.433,57.202 19.569,73.701 0,73.701 -19.569,73.701 -35.433,57.202 -35.433,36.85 -35.433,16.498 -19.569,0 0,0"
             style="fill:#ffffff;fill-opacity:1;fill-rule:nonzero;stroke:none"
             id="path36"
             inkscape:connector-curvature="0" /></g></g></g><g
       id="g38"
       transform="translate(274.68446,-24.971315)"><g
         id="g40"
         clip-path="url(#clipPath42)"><g
           id="g46"
           transform="translate(443.3698,672.2343)"><path
             d="m 0,0 c 0,-1.177 -0.738,-2.157 -1.972,-2.157 -1.234,0 -1.972,0.98 -1.972,2.157 0,1.176 0.738,2.156 1.972,2.156 C -0.738,2.156 0,1.176 0,0 m -3.223,0 c 0,-0.791 0.369,-1.569 1.251,-1.569 0.882,0 1.251,0.778 1.251,1.569 0,0.789 -0.369,1.568 -1.251,1.568 -0.882,0 -1.251,-0.779 -1.251,-1.568"
             style="fill:#464141;fill-opacity:1;fill-rule:nonzero;stroke:none"
             id="path48"
             inkscape:connector-curvature="0" /></g><g
           id="g50"
           transform="translate(444.6038,674.2933)"><path
             d="m 0,0 1.966,0 c 0.899,0 1.36,-0.416 1.36,-1.113 0,-0.791 -0.547,-0.992 -0.68,-1.039 l 0,-0.011 c 0.248,-0.035 0.612,-0.22 0.612,-0.87 0,-0.48 0.068,-0.918 0.224,-1.085 l -0.772,0 C 2.6,-3.939 2.6,-3.713 2.6,-3.513 c 0,0.756 -0.156,1.091 -0.819,1.091 l -1.06,0 0,-1.696 L 0,-4.118 0,0 z m 0.721,-1.874 1.181,0 c 0.457,0 0.704,0.223 0.704,0.657 0,0.525 -0.34,0.628 -0.715,0.628 l -1.17,0 0,-1.285"
             style="fill:#464141;fill-opacity:1;fill-rule:nonzero;stroke:none"
             id="path52"
             inkscape:connector-curvature="0" /></g><g
           id="g54"
           transform="translate(452.8313,670.1757)"><path
             d="m 0,0 -0.461,0 -0.11,0.484 c -0.387,-0.438 -0.738,-0.582 -1.24,-0.582 -1.233,0 -1.971,0.98 -1.971,2.157 0,1.176 0.738,2.156 1.971,2.156 0.9,0 1.655,-0.478 1.765,-1.408 l -0.703,0 c -0.07,0.544 -0.543,0.82 -1.062,0.82 -0.882,0 -1.251,-0.779 -1.251,-1.568 0,-0.791 0.369,-1.569 1.251,-1.569 0.738,-0.011 1.142,0.432 1.153,1.13 l -1.095,0 0,0.547 L 0,2.167 0,0"
             style="fill:#464141;fill-opacity:1;fill-rule:nonzero;stroke:none"
             id="path56"
             inkscape:connector-curvature="0" /></g><g
           id="g58"
           transform="translate(455.2932,674.2933)"><path
             d="m 0,0 0.767,0 1.585,-4.118 -0.773,0 -0.386,1.09 -1.643,0 -0.386,-1.09 -0.744,0 L 0,0 z m -0.254,-2.48 1.258,0 -0.618,1.769 -0.005,0 -0.012,0 -0.623,-1.769 z"
             style="fill:#464141;fill-opacity:1;fill-rule:nonzero;stroke:none"
             id="path60"
             inkscape:connector-curvature="0" /></g><g
           id="g62"
           transform="translate(458.5851,674.2933)"><path
             d="m 0,0 0.761,0 1.88,-3.033 0.012,0 0,3.033 0.685,0 0,-4.118 -0.76,0 -1.875,3.027 -0.017,0 0,-3.027 L 0,-4.118 0,0 z"
             style="fill:#464141;fill-opacity:1;fill-rule:nonzero;stroke:none"
             id="path64"
             inkscape:connector-curvature="0" /></g><path
           d="m 463.354,674.293 0.721,0 0,-4.118 -0.721,0 0,4.118 z"
           style="fill:#464141;fill-opacity:1;fill-rule:nonzero;stroke:none"
           id="path66"
           inkscape:connector-curvature="0" /><g
           id="g68"
           transform="translate(466.0057,671.5482)"><path
             d="m 0,0 c 0,-0.634 0.467,-0.883 1.043,-0.883 0.635,0 0.871,0.312 0.871,0.623 0,0.317 -0.173,0.445 -0.339,0.508 -0.289,0.11 -0.664,0.183 -1.229,0.34 -0.704,0.189 -0.911,0.617 -0.911,1.044 0,0.824 0.761,1.21 1.505,1.21 0.859,0 1.58,-0.455 1.58,-1.314 l -0.721,0 C 1.764,2.059 1.406,2.254 0.911,2.254 0.577,2.254 0.156,2.134 0.156,1.719 0.156,1.429 0.352,1.27 0.645,1.187 0.709,1.169 1.62,0.935 1.833,0.871 2.376,0.708 2.635,0.248 2.635,-0.179 2.635,-1.102 1.816,-1.471 0.998,-1.471 0.058,-1.471 -0.703,-1.02 -0.72,0 L 0,0"
             style="fill:#464141;fill-opacity:1;fill-rule:nonzero;stroke:none"
             id="path70"
             inkscape:connector-curvature="0" /></g><g
           id="g72"
           transform="translate(470.947,674.2933)"><path
             d="m 0,0 0.766,0 1.586,-4.118 -0.772,0 -0.387,1.09 -1.643,0 -0.386,-1.09 -0.744,0 L 0,0 z m -0.254,-2.48 1.257,0 -0.617,1.769 -0.005,0 -0.012,0 -0.623,-1.769 z"
             style="fill:#464141;fill-opacity:1;fill-rule:nonzero;stroke:none"
             id="path74"
             inkscape:connector-curvature="0" /></g><g
           id="g76"
           transform="translate(473.3464,674.2933)"><path
             d="m 0,0 3.333,0 0,-0.623 -1.309,0 0,-3.495 -0.72,0 0,3.495 L 0,-0.623 0,0 z"
             style="fill:#464141;fill-opacity:1;fill-rule:nonzero;stroke:none"
             id="path78"
             inkscape:connector-curvature="0" /></g><path
           d="m 477.734,674.293 0.72,0 0,-4.118 -0.72,0 0,4.118 z"
           style="fill:#464141;fill-opacity:1;fill-rule:nonzero;stroke:none"
           id="path80"
           inkscape:connector-curvature="0" /><g
           id="g82"
           transform="translate(483.6383,672.2343)"><path
             d="m 0,0 c 0,-1.177 -0.738,-2.157 -1.972,-2.157 -1.234,0 -1.972,0.98 -1.972,2.157 0,1.176 0.738,2.156 1.972,2.156 C -0.738,2.156 0,1.176 0,0 m -3.223,0 c 0,-0.791 0.368,-1.569 1.251,-1.569 0.882,0 1.251,0.778 1.251,1.569 0,0.789 -0.369,1.568 -1.251,1.568 -0.883,0 -1.251,-0.779 -1.251,-1.568"
             style="fill:#464141;fill-opacity:1;fill-rule:nonzero;stroke:none"
             id="path84"
             inkscape:connector-curvature="0" /></g><g
           id="g86"
           transform="translate(484.8434,674.2933)"><path
             d="m 0,0 0.761,0 1.88,-3.033 0.011,0 0,3.033 0.686,0 0,-4.118 -0.761,0 -1.874,3.027 -0.017,0 0,-3.027 L 0,-4.118 0,0 z"
             style="fill:#464141;fill-opacity:1;fill-rule:nonzero;stroke:none"
             id="path88"
             inkscape:connector-curvature="0" /></g><path
           d="m 421.703,667.208 0.721,0 0,-4.117 -0.721,0 0,4.117 z"
           style="fill:#464141;fill-opacity:1;fill-rule:nonzero;stroke:none"
           id="path90"
           inkscape:connector-curvature="0" /><g
           id="g92"
           transform="translate(423.8524,667.2083)"><path
             d="m 0,0 0.761,0 1.88,-3.034 0.012,0 0,3.034 0.685,0 0,-4.117 -0.76,0 -1.874,3.027 -0.017,0 0,-3.027 L 0,-4.117 0,0 z"
             style="fill:#464141;fill-opacity:1;fill-rule:nonzero;stroke:none"
             id="path94"
             inkscape:connector-curvature="0" /></g><g
           id="g96"
           transform="translate(428.2293,667.2083)"><path
             d="m 0,0 3.332,0 0,-0.623 -1.309,0 0,-3.494 -0.72,0 0,3.494 L 0,-0.623 0,0 z"
             style="fill:#464141;fill-opacity:1;fill-rule:nonzero;stroke:none"
             id="path98"
             inkscape:connector-curvature="0" /></g><g
           id="g100"
           transform="translate(432.6169,667.2083)"><path
             d="m 0,0 2.964,0 0,-0.623 -2.243,0 0,-1.078 2.076,0 0,-0.589 -2.076,0 0,-1.204 2.282,0 0,-0.623 L 0,-4.117 0,0 z"
             style="fill:#464141;fill-opacity:1;fill-rule:nonzero;stroke:none"
             id="path102"
             inkscape:connector-curvature="0" /></g><g
           id="g104"
           transform="translate(436.8256,667.2083)"><path
             d="m 0,0 1.966,0 c 0.899,0 1.361,-0.415 1.361,-1.113 0,-0.79 -0.547,-0.992 -0.68,-1.038 l 0,-0.011 c 0.248,-0.035 0.611,-0.219 0.611,-0.872 0,-0.479 0.069,-0.916 0.224,-1.083 l -0.773,0 C 2.6,-3.938 2.6,-3.713 2.6,-3.513 c 0,0.756 -0.156,1.091 -0.818,1.091 l -1.061,0 0,-1.695 L 0,-4.117 0,0 z m 0.721,-1.874 1.182,0 c 0.455,0 0.704,0.224 0.704,0.656 0,0.526 -0.341,0.63 -0.716,0.63 l -1.17,0 0,-1.286"
             style="fill:#464141;fill-opacity:1;fill-rule:nonzero;stroke:none"
             id="path106"
             inkscape:connector-curvature="0" /></g><g
           id="g108"
           transform="translate(441.4323,667.2083)"><path
             d="m 0,0 0.761,0 1.88,-3.034 0.011,0 0,3.034 0.686,0 0,-4.117 -0.761,0 -1.874,3.027 -0.017,0 0,-3.027 L 0,-4.117 0,0 z"
             style="fill:#464141;fill-opacity:1;fill-rule:nonzero;stroke:none"
             id="path110"
             inkscape:connector-curvature="0" /></g><g
           id="g112"
           transform="translate(447.3016,667.2083)"><path
             d="m 0,0 0.767,0 1.586,-4.117 -0.773,0 -0.387,1.088 -1.642,0 -0.387,-1.088 -0.744,0 L 0,0 z m -0.254,-2.479 1.258,0 -0.618,1.77 -0.005,0 -0.011,0 -0.624,-1.77 z"
             style="fill:#464141;fill-opacity:1;fill-rule:nonzero;stroke:none"
             id="path114"
             inkscape:connector-curvature="0" /></g><g
           id="g116"
           transform="translate(449.7021,667.2083)"><path
             d="m 0,0 3.333,0 0,-0.623 -1.31,0 0,-3.494 -0.721,0 0,3.494 L 0,-0.623 0,0 z"
             style="fill:#464141;fill-opacity:1;fill-rule:nonzero;stroke:none"
             id="path118"
             inkscape:connector-curvature="0" /></g><path
           d="m 454.09,667.208 0.72,0 0,-4.117 -0.72,0 0,4.117 z"
           style="fill:#464141;fill-opacity:1;fill-rule:nonzero;stroke:none"
           id="path120"
           inkscape:connector-curvature="0" /><g
           id="g122"
           transform="translate(459.994,665.1496)"><path
             d="m 0,0 c 0,-1.176 -0.739,-2.157 -1.972,-2.157 -1.234,0 -1.972,0.981 -1.972,2.157 0,1.176 0.738,2.155 1.972,2.155 C -0.739,2.155 0,1.176 0,0 m -3.224,0 c 0,-0.79 0.37,-1.569 1.252,-1.569 0.881,0 1.25,0.779 1.25,1.569 0,0.789 -0.369,1.568 -1.25,1.568 -0.882,0 -1.252,-0.779 -1.252,-1.568"
             style="fill:#464141;fill-opacity:1;fill-rule:nonzero;stroke:none"
             id="path124"
             inkscape:connector-curvature="0" /></g><g
           id="g126"
           transform="translate(461.1985,667.2083)"><path
             d="m 0,0 0.761,0 1.88,-3.034 0.011,0 0,3.034 0.686,0 0,-4.117 -0.761,0 -1.874,3.027 -0.018,0 0,-3.027 L 0,-4.117 0,0 z"
             style="fill:#464141;fill-opacity:1;fill-rule:nonzero;stroke:none"
             id="path128"
             inkscape:connector-curvature="0" /></g><g
           id="g130"
           transform="translate(467.0674,667.2083)"><path
             d="m 0,0 0.767,0 1.585,-4.117 -0.772,0 -0.385,1.088 -1.644,0 -0.386,-1.088 -0.744,0 L 0,0 z m -0.253,-2.479 1.257,0 -0.617,1.77 -0.007,0 -0.011,0 -0.622,-1.77 z"
             style="fill:#464141;fill-opacity:1;fill-rule:nonzero;stroke:none"
             id="path132"
             inkscape:connector-curvature="0" /></g><g
           id="g134"
           transform="translate(470.3892,667.2083)"><path
             d="m 0,0 0.72,0 0,-3.494 2.094,0 0,-0.623 L 0,-4.117 0,0 z"
             style="fill:#464141;fill-opacity:1;fill-rule:nonzero;stroke:none"
             id="path136"
             inkscape:connector-curvature="0" /></g><g
           id="g138"
           transform="translate(474.2747,667.2083)"><path
             d="m 0,0 2.963,0 0,-0.623 -2.242,0 0,-1.078 2.075,0 0,-0.589 -2.075,0 0,-1.204 2.283,0 0,-0.623 L 0,-4.117 0,0 z"
             style="fill:#464141;fill-opacity:1;fill-rule:nonzero;stroke:none"
             id="path140"
             inkscape:connector-curvature="0" /></g><g
           id="g142"
           transform="translate(480.4607,667.2083)"><path
             d="m 0,0 1.707,0 c 1.268,0 1.816,-0.923 1.816,-2.059 0,-1.135 -0.548,-2.058 -1.816,-2.058 L 0,-4.117 0,0 z m 0.722,-3.529 0.708,0 c 1.13,0 1.372,0.645 1.372,1.47 0,0.824 -0.242,1.471 -1.372,1.471 l -0.708,0 0,-2.941"
             style="fill:#464141;fill-opacity:1;fill-rule:nonzero;stroke:none"
             id="path144"
             inkscape:connector-curvature="0" /></g><g
           id="g146"
           transform="translate(485.2003,667.2083)"><path
             d="m 0,0 2.964,0 0,-0.623 -2.244,0 0,-1.078 2.076,0 0,-0.589 -2.076,0 0,-1.204 2.284,0 0,-0.623 L 0,-4.117 0,0 z"
             style="fill:#464141;fill-opacity:1;fill-rule:nonzero;stroke:none"
             id="path148"
             inkscape:connector-curvature="0" /></g><g
           id="g150"
           transform="translate(401.782,651.7371)"><path
             d="m 0,0 0,7.289 c 0,0.475 -0.379,0.853 -0.852,0.853 l 0,0.567 2.84,0 0,-9.844 c 0,-1.249 1.003,-2.274 2.273,-2.274 l 0,-0.85 C 1.893,-4.259 0,-2.347 0,0"
             style="fill:#464141;fill-opacity:1;fill-rule:nonzero;stroke:none"
             id="path152"
             inkscape:connector-curvature="0" /></g><g
           id="g154"
           transform="translate(411.2294,647.6847)"><path
             d="m 0,0 c -2.348,0 -4.259,1.969 -4.259,4.375 0,2.423 1.931,4.394 4.279,4.394 0.739,0 1.495,-0.154 1.988,-0.739 l 0,0.492 2.007,0 0,-7.12 c 0,-0.473 0.379,-0.833 0.833,-0.833 L 4.848,0 0,0 z m 2.14,5.758 c 0,1.174 -0.946,2.118 -2.12,2.118 -1.155,0 -2.14,-0.944 -2.14,-2.118 l 0,-2.767 c 0,-1.192 0.985,-2.139 2.14,-2.139 l 2.12,0 0,4.906"
             style="fill:#464141;fill-opacity:1;fill-rule:nonzero;stroke:none"
             id="path156"
             inkscape:connector-curvature="0" /></g><g
           id="g158"
           transform="translate(426.3984,658.458)"><path
             d="M 0,0 C 0,0.74 -0.625,1.347 -1.344,1.347 -2.101,1.347 -2.707,0.74 -2.707,0 l 0,-2.251 2.329,0 0,-0.853 -2.329,0 0,-7.669 -1.989,0 0,7.102 c 0,0.472 -0.379,0.87 -0.852,0.87 l 0,0.55 0.852,0 0,1.381 c 0,1.666 1.383,3.067 3.087,3.067 C -0.757,2.197 0,1.839 0.569,1.31 L 0.569,0 0,0"
             style="fill:#464141;fill-opacity:1;fill-rule:nonzero;stroke:none"
             id="path160"
             inkscape:connector-curvature="0" /></g><g
           id="g162"
           transform="translate(434.1058,654.4827)"><path
             d="m 0,0 c -0.436,0.512 -0.947,0.776 -1.648,0.776 -0.776,0 -1.401,-0.739 -1.401,-1.515 l 0,-6.059 -2.008,0 0,7.081 c 0,0.475 -0.378,0.853 -0.851,0.853 l 0,0.588 2.839,0 0,-0.569 c 0.607,0.531 1.459,0.776 2.292,0.776 0.492,0 0.965,-0.057 1.402,-0.227 L 0,0"
             style="fill:#464141;fill-opacity:1;fill-rule:nonzero;stroke:none"
             id="path164"
             inkscape:connector-curvature="0" /></g><g
           id="g166"
           transform="translate(439.0357,647.6847)"><path
             d="m 0,0 c -2.348,0 -4.26,1.969 -4.26,4.375 0,2.423 1.93,4.394 4.279,4.394 0.738,0 1.496,-0.154 1.987,-0.739 l 0,0.492 2.008,0 0,-7.12 c 0,-0.473 0.378,-0.833 0.834,-0.833 L 4.848,0 0,0 z m 2.139,5.758 c 0,1.174 -0.946,2.118 -2.12,2.118 -1.156,0 -2.14,-0.944 -2.14,-2.118 l 0,-2.767 c 0,-1.192 0.984,-2.139 2.14,-2.139 l 2.12,0 0,4.906"
             style="fill:#464141;fill-opacity:1;fill-rule:nonzero;stroke:none"
             id="path168"
             inkscape:connector-curvature="0" /></g><g
           id="g170"
           transform="translate(452.0948,647.6847)"><path
             d="m 0,0 0,5.927 c 0,1.079 -0.909,1.949 -1.988,1.949 -1.117,0 -1.988,-0.87 -1.988,-1.949 l 0,-5.927 -1.855,0 0,7.102 c 0,0.472 -0.38,0.851 -0.853,0.851 l 0,0.569 2.84,0 0,-0.417 c 0.531,0.379 1.117,0.624 1.856,0.624 2.443,0 3.957,-1.703 3.957,-4.354 l 0,-2.935 c 0,-0.474 0.379,-0.852 0.853,-0.852 L 2.822,0 0,0"
             style="fill:#464141;fill-opacity:1;fill-rule:nonzero;stroke:none"
             id="path172"
             inkscape:connector-curvature="0" /></g><g
           id="g174"
           transform="translate(460.4659,647.6847)"><path
             d="m 0,0 c -2.367,0 -4.262,1.969 -4.262,4.375 0,2.423 1.895,4.394 4.262,4.394 0.983,0 1.949,-0.418 2.688,-1.023 l 0,-1.988 -0.568,0 c 0,1.174 -0.966,2.118 -2.12,2.118 -1.194,0 -2.14,-0.944 -2.14,-2.118 l 0,-2.767 C -2.14,1.799 -1.194,0.852 0,0.852 l 2.688,0 L 2.688,0 0,0"
             style="fill:#464141;fill-opacity:1;fill-rule:nonzero;stroke:none"
             id="path176"
             inkscape:connector-curvature="0" /></g><g
           id="g178"
           transform="translate(469.0793,647.4779)"><path
             d="m 0,0 c -2.348,0 -4.26,2.006 -4.26,4.487 0,2.461 1.912,4.488 4.26,4.488 2.348,0 4.26,-2.027 4.26,-4.488 C 4.26,2.006 2.348,0 0,0 m 2.14,5.964 c 0,1.174 -0.946,2.119 -2.14,2.119 -1.174,0 -2.119,-0.945 -2.119,-2.119 l 0,-3.068 c 0,-1.174 0.945,-2.12 2.119,-2.12 1.194,0 2.14,0.946 2.14,2.12 l 0,3.068"
             style="fill:#464141;fill-opacity:1;fill-rule:nonzero;stroke:none"
             id="path180"
             inkscape:connector-curvature="0" /></g><g
           id="g182"
           transform="translate(479.5891,647.4387)"><path
             d="m 0,0 c -0.74,0 -1.496,0.153 -1.989,0.737 l 0,-3.312 c 0,-0.473 0.379,-0.852 0.853,-0.852 l 0,-0.586 -2.841,0 0,11.361 c 0,0.472 -0.36,0.832 -0.833,0.832 l 0,0.588 4.828,0 c 2.367,0 4.261,-1.97 4.261,-4.375 C 4.279,1.97 2.366,0 0,0 M 2.12,5.794 C 2.12,6.951 1.173,7.915 0,7.915 l -2.14,0 0,-4.999 c 0,-1.155 0.947,-2.12 2.14,-2.12 1.173,0 2.12,0.965 2.12,2.12 l 0,2.878"
             style="fill:#464141;fill-opacity:1;fill-rule:nonzero;stroke:none"
             id="path184"
             inkscape:connector-curvature="0" /></g><g
           id="g186"
           transform="translate(492.0289,647.6847)"><path
             d="m 0,0 0,5.89 c 0,1.098 -0.89,1.986 -1.988,1.986 -1.098,0 -1.988,-0.888 -1.988,-1.986 l 0,-5.89 -1.837,0 0,11.342 c 0,0.475 -0.378,0.853 -0.852,0.853 l 0,0.567 2.841,0 0,-4.657 c 0.511,0.379 1.116,0.624 1.836,0.624 2.444,0 3.957,-1.703 3.957,-4.373 l 0,-2.916 c 0,-0.474 0.379,-0.852 0.852,-0.852 L 2.821,0 0,0"
             style="fill:#464141;fill-opacity:1;fill-rule:nonzero;stroke:none"
             id="path188"
             inkscape:connector-curvature="0" /></g><g
           id="g190"
           transform="translate(500.4177,647.4779)"><path
             d="m 0,0 c -2.348,0 -4.261,2.006 -4.261,4.487 0,2.461 1.913,4.488 4.261,4.488 2.348,0 4.26,-2.027 4.26,-4.488 C 4.26,2.006 2.348,0 0,0 m 2.139,5.964 c 0,1.174 -0.947,2.119 -2.139,2.119 -1.174,0 -2.122,-0.945 -2.122,-2.119 l 0,-3.068 c 0,-1.174 0.948,-2.12 2.122,-2.12 1.192,0 2.139,0.946 2.139,2.12 l 0,3.068"
             style="fill:#464141;fill-opacity:1;fill-rule:nonzero;stroke:none"
             id="path192"
             inkscape:connector-curvature="0" /></g><g
           id="g194"
           transform="translate(512.8024,647.6847)"><path
             d="m 0,0 0,5.927 c 0,1.079 -0.911,1.949 -1.99,1.949 -1.117,0 -1.988,-0.87 -1.988,-1.949 l 0,-5.927 -1.855,0 0,7.102 c 0,0.472 -0.38,0.851 -0.853,0.851 l 0,0.569 2.84,0 0,-0.417 c 0.531,0.379 1.118,0.624 1.856,0.624 2.443,0 3.959,-1.703 3.959,-4.354 l 0,-2.935 C 1.969,0.966 2.347,0.588 2.82,0.588 L 2.82,0 0,0"
             style="fill:#464141;fill-opacity:1;fill-rule:nonzero;stroke:none"
             id="path196"
             inkscape:connector-curvature="0" /></g><g
           id="g198"
           transform="translate(517.6292,647.6847)"><path
             d="m 0,0 0,7.102 c 0,0.472 -0.359,0.851 -0.833,0.851 l 0,0.569 2.821,0 L 1.988,0 0,0"
             style="fill:#464141;fill-opacity:1;fill-rule:nonzero;stroke:none"
             id="path200"
             inkscape:connector-curvature="0" /></g><g
           id="g202"
           transform="translate(523.7835,652.0596)"><path
             d="m 0,0 0,-1.384 c 0,-1.173 0.946,-2.139 2.101,-2.139 l 3.75,0 0,-0.852 -3.712,0 c -2.347,0 -4.26,1.969 -4.26,4.375 0,2.423 1.913,4.354 4.26,4.354 2.33,0 4.262,-1.931 4.262,-4.354 L 0,0 z M 4.261,1.383 C 4.261,2.537 3.314,3.501 2.139,3.501 0.946,3.501 0,2.537 0,1.383 l 0,-0.532 4.261,0 0,0.532"
             style="fill:#464141;fill-opacity:1;fill-rule:nonzero;stroke:none"
             id="path204"
             inkscape:connector-curvature="0" /></g><path
           d="m 519.617,657.373 -1.991,0 0,1.991 1.991,0 0,-1.991 z"
           style="fill:#464141;fill-opacity:1;fill-rule:nonzero;stroke:none"
           id="path206"
           inkscape:connector-curvature="0" /><g
           id="g208"
           transform="translate(522.2842,665.8728)"><path
             d="M 0,0 -2.17,2.984 C -7.059,-0.083 -13.419,0.132 -18.098,3.647 l -2.681,-3.693 C -13.727,-5.302 -3.81,-4.928 2.832,1.062 L 2.246,1.879 C 1.554,1.202 0.806,0.572 0,0"
             style="fill:#ee2631;fill-opacity:1;fill-rule:nonzero;stroke:none"
             id="path210"
             inkscape:connector-curvature="0" /></g><g
           id="g212"
           transform="translate(528.5259,688.6703)"><path
             d="m 0,0 -0.958,-0.304 c 0.429,-0.867 0.799,-1.773 1.093,-2.717 l -3.509,-1.142 c 1.407,-5.597 -0.764,-11.579 -5.551,-14.944 l 2.683,-3.69 C 0.937,-17.715 3.644,-8.168 0,0"
             style="fill:#672290;fill-opacity:1;fill-rule:nonzero;stroke:none"
             id="path214"
             inkscape:connector-curvature="0" /></g><g
           id="g216"
           transform="translate(508.9075,698.6298)"><path
             d="m 0,0 -0.006,-1.004 c 0.957,0.139 1.932,0.21 2.921,0.199 L 2.917,-4.496 C 8.674,-4.885 13.694,-8.8 15.414,-14.392 l 4.339,1.411 C 17.137,-4.583 8.896,0.944 0,0"
             style="fill:#78ca2a;fill-opacity:1;fill-rule:nonzero;stroke:none"
             id="path218"
             inkscape:connector-curvature="0" /></g><g
           id="g220"
           transform="translate(498.5497,684.4341)"><path
             d="m 0,0 c 2.151,5.356 7.424,8.92 13.275,8.828 l -0.002,4.563 C 4.479,13.498 -3.324,7.367 -5.177,-1.384 l 0.955,-0.317 c 0.161,0.955 0.395,1.904 0.713,2.84 L 0,0"
             style="fill:#fcd205;fill-opacity:1;fill-rule:nonzero;stroke:none"
             id="path222"
             inkscape:connector-curvature="0" /></g><g
           id="g224"
           transform="translate(503.6727,668.8118)"><path
             d="m 0,0 c -4.428,3.702 -6.189,9.817 -4.293,15.353 l -4.339,1.408 c -2.82,-8.329 0.6,-17.646 8.35,-22.112 l 0.596,0.811 c -0.857,0.448 -1.688,0.963 -2.481,1.555 L 0,0"
             style="fill:#00adef;fill-opacity:1;fill-rule:nonzero;stroke:none"
             id="path226"
             inkscape:connector-curvature="0" /></g></g></g></g></svg>